# AST/ASF file generated using VICON BodyLanguage
# -----------------------------------------------
:version 1.10
:name VICON
:units
  mass 1.0
  length 0.45
  angle deg
:documentation
   .ast/.asf automatically generated from VICON data using
   VICON BodyBuilder and BodyLanguage model FoxedUp or BRILLIANT.MOD
:root
   order TX TY TZ RX RY RZ
   axis XYZ
   position 0 0 0  
   orientation 0 0 0 
:bonedata
  begin
     id 1 
     name lhipjoint
     direction 0.623415 -0.642378 0.445763 
     length 2.49859 
     axis 0 0 0  XYZ
  end
  begin
     id 2 
     name lfemur
     direction 0.34202 -0.939693 0  
     length 6.69689  
     axis 0 0 20  XYZ
    dof rx ry rz
    limits (-160.0 20.0)
           (-70.0 70.0)
           (-60.0 70.0)
  end
  begin
     id 3 
     name ltibia
     direction 0.34202 -0.939693 0   
     length 7.37574   
     axis 0 0 20   XYZ
    dof rx
    limits (-10.0 170.0)
  end
  begin
     id 4 
     name lfoot
     direction 0.084323 -0.231675 0.969132   
     length 2.09111   
     axis -90 7.62852e-016 20   XYZ
    dof rx rz
    limits (-45.0 90.0)
           (-70.0 20.0)
  end
  begin
     id 5 
     name ltoes
     direction 1.5357e-011 -4.21957e-011 1   
     length 1.04989   
     axis -90 7.62852e-016 20   XYZ
    dof rx
    limits (-90.0 20.0)
  end
  begin
     id 6 
     name rhipjoint
     direction -0.605402 -0.653903 0.45376   
     length 2.45455  
     axis 0 0 0  XYZ 
  end
  begin
     id 7 
     name rfemur
     direction -0.34202 -0.939693 0   
     length 6.64523   
     axis 0 0 -20   XYZ
    dof rx ry rz
    limits (-160.0 20.0)
           (-70.0 70.0)
           (-70.0 60.0)
  end
  begin
     id 8 
     name rtibia
     direction -0.34202 -0.939693 0   
     length 7.3339   
     axis 0 0 -20   XYZ
    dof rx
    limits (-10.0 170.0)
 end
 begin
     id 9 
     name rfoot
     direction -0.120854 -0.332043 0.93549   
     length 2.23135  
     axis -90 -7.62852e-016 -20   XYZ
    dof rx rz
    limits (-45.0 90.0)
           (-20.0 70.0)
  end
  begin
     id 10 
     name rtoes
     direction -1.53563e-011 -4.21914e-011 1   
     length 1.10614   
     axis -90 -7.62852e-016 -20   XYZ
    dof rx
    limits (-90.0 20.0)
  end
  begin
     id 11 
     name lowerback
     direction 0.0319682 0.998615 -0.0417941   
     length 2.02718   
     axis 0 0 0   XYZ
    dof rx ry rz
    limits (-20.0 45.0)
           (-30.0 30.0)
           (-30.0 30.0)
  end
  begin
     id 12 
     name upperback
     direction 7.63181e-005 0.995808 0.0914691   
     length 1.97539   
     axis 0 0 0   XYZ
    dof rx ry rz
    limits (-20.0 45.0)
           (-30.0 30.0)
           (-30.0 30.0)
  end
  begin
     id 13 
     name thorax
     direction -0.016423 0.993627 0.111514   
     length 2.00349   
     axis 0 0 0   XYZ
    dof rx ry rz
    limits (-20.0 45.0)
           (-30.0 30.0)
           (-30.0 30.0)
  end
  begin
     id 14 
     name lowerneck
     direction -0.174763 0.981668 -0.0760716   
     length 1.71436   
     axis 0 0 0   XYZ
    dof rx ry rz
    limits (-20.0 45.0)
           (-30.0 30.0)
           (-30.0 30.0)
  end
  begin
     id 15 
     name upperneck
     direction 0.345458 0.934587 -0.0848868   
     length 1.72805   
     axis 0 0 0   XYZ
    dof rx ry rz
    limits (-20.0 45.0)
           (-30.0 30.0)
           (-30.0 30.0)
  end
  begin
     id 16
     name head
     direction 0.13001 0.989848 -0.0574291  
     length 1.767  
     axis 0 0 0   XYZ
    dof rx ry rz
    limits (-20.0 45.0)
           (-30.0 30.0)
           (-30.0 30.0)
  end
  begin
     id 17 
     name lclavicle
     direction 0.952951 0.290122 0.0878234  
     length 3.54654  
     axis 0 0 0   XYZ
    dof ry rz
    limits (-20.0 10.0)
           (0.0 20.0)
  end
  begin
     id 18 
     name lhumerus
     direction 1 -4.48957e-011 -4.56525e-028   
     length 5.19807   
     axis 180 -30 -90   XYZ
    dof rx ry rz
    limits (-60.0 90.0)
           (-90.0 90.0)
           (-90.0 90.0)
  end
  begin
     id 19
     name lradius
     direction 1 -4.48979e-011 -2.0317e-027   
     length 3.0937   
     axis 180 -30 -90   XYZ
    dof rx
    limits (-10.0 170.0)
  end
  begin
     id 20
     name lwrist
     direction 1 -4.48953e-011 -3.05809e-027   
     length 1.54685   
     axis 8.48514e-016 90 90   XYZ
    dof ry
    limits (-180.0 0.0)
 end
  begin
     id 21 
     name lhand
     direction 1 -4.48952e-011 -6.11639e-027   
     length 0.672632   
     axis 3.9013e-015 90 90   XYZ
    dof rx rz
    limits (-90.0 90.0)
           (-45.0 45.0)
  end
  begin
     id 22 
     name lfingers
     direction 1 -4.48925e-011 -1.22426e-026   
     length 0.542293   
     axis 7.80276e-015 90 90   XYZ
    dof rx
    limits (0.0 90.0)
  end
  begin
     id 23
     name lthumb
     direction 0.707107 -6.3486e-011 0.707107   
     length 0.778628   
     axis -90 45 5.37419e-014   XYZ
    dof rx rz
    limits (-45.0 45.0)
           (-45.0 45.0)
  end
  begin
     id 24 
     name rclavicle
     direction -0.960732 0.273675 -0.0457849   
     length 3.52079  
     axis 0 0 0   XYZ 
    dof ry rz
    limits (-10.0 20.0)
           (-20.0 0.0)
  end
  begin
     id 25 
     name rhumerus
     direction -1 -4.48976e-011 -1.63613e-027  
     length 5.45222   
     axis 180 30 90   XYZ
    dof rx ry rz
    limits (-90.0 60.0)
           (-90.0 90.0)
           (-90.0 90.0)
  end
  begin
     id 26 
     name rradius
     direction -1 -4.48957e-011 -7.00033e-028   
     length 3.01284   
     axis 180 30 90   XYZ
    dof rx
    limits (-10.0 170.0)
  end
  begin
     id 27 
     name rwrist
     direction -1 -4.48983e-011 -3.05543e-027   
     length 1.50642   
     axis 8.48514e-016 -90 -90   XYZ
    dof ry
    limits (-180.0 0.0)
  end
  begin
     id 28
     name rhand
     direction -1 -4.48984e-011 -6.11072e-027   
     length 0.622296   
     axis 3.9013e-015 -90 -90   XYZ
    dof rx rz
    limits (-90.0 90.0)
           (-45.0 45.0)
  end
  begin
     id 29
     name rfingers
     direction -1 -4.48865e-011 -1.22637e-026   
     length 0.501711   
     axis 7.80276e-015 -90 -90   XYZ
    dof rx
    limits (0.0 90.0)
  end
  begin
     id 30
     name rthumb
     direction -0.707107 -6.34932e-011 0.707107   
     length 0.72036   
     axis -90 -45 -5.37419e-014   XYZ
    dof rx rz
    limits (-45.0 45.0)
           (-45.0 45.0)
  end
:hierarchy
  begin
    root lhipjoint rhipjoint lowerback
    lhipjoint lfemur
    lfemur ltibia
    ltibia lfoot
    lfoot ltoes
    rhipjoint rfemur
    rfemur rtibia
    rtibia rfoot
    rfoot rtoes
    lowerback upperback
    upperback thorax
    thorax lowerneck lclavicle rclavicle
    lowerneck upperneck
    upperneck head
    lclavicle lhumerus
    lhumerus lradius
    lradius lwrist
    lwrist lhand lthumb
    lhand lfingers
    rclavicle rhumerus
    rhumerus rradius
    rradius rwrist
    rwrist rhand rthumb
    rhand rfingers
  end

#!OML:ASF H:\Not Pregnant\Project 1\Capture day 1\Session 1\non-pregnant.ASF
:FULLY-SPECIFIED
:DEGREES
1
root 6.2699 15.7672 39.7176 -167.959 -12.7597 -175.888
lowerback -12.506 7.12337 6.99598
upperback -6.29631 8.10846 -2.47568
thorax 1.64571 3.63904 -5.30642
lowerneck -10.171 4.8076 -24.0604
upperneck 16.2858 2.96562 39.0497
head 4.98703 1.95381 20.0542
rclavicle 8.15017e-015 1.59028e-015
rhumerus -35.5355 -2.81017 -92.853
rradius 24.1355
rwrist 27.076
rhand -9.78153 -2.12596
rfingers 7.12502
rthumb 16.194 -31.4695
lclavicle 8.15017e-015 1.59028e-015
lhumerus -36.8868 -14.069 90.6659
lradius 29.3661
lwrist 42.0538
lhand 12.9736 -2.81968
lfingers 7.12502
lthumb 37.9409 22.9956
rfemur -21.8706 -14.6852 28.2581
rtibia 25.9188
rfoot -19.4353 18.9691
rtoes -3.98415
lfemur -24.1863 8.18924 -17.5849
ltibia 29.9959
lfoot -19.8113 -3.76109
ltoes -20.0872
2
root 6.27064 15.7667 39.7215 -167.974 -12.7912 -175.891
lowerback -12.5341 7.09771 6.93762
upperback -6.23684 8.08208 -2.40645
thorax 1.70237 3.63345 -5.20019
lowerneck -10.4172 4.84194 -24.1054
upperneck 16.328 3.08814 39.0411
head 5.00205 2.04286 20.0756
rclavicle -2.75317e-014 1.98785e-014
rhumerus -35.4762 -2.64175 -92.8076
rradius 24.1105
rwrist 27.0621
rhand -9.96625 -2.05383
rfingers 7.12502
rthumb 16.0161 -31.4118
lclavicle -2.75317e-014 1.98785e-014
lhumerus -37.1086 -14.7168 91.273
lradius 29.5048
lwrist 41.595
lhand 10.9082 -3.79398
lfingers 7.12502
lthumb 35.9872 22.5257
rfemur -21.8685 -14.6657 28.2522
rtibia 25.926
rfoot -19.4418 18.886
rtoes -4.05626
lfemur -24.193 8.20702 -17.5937
ltibia 29.9992
lfoot -19.8462 -3.83667
ltoes -20.1798
3
root 6.27192 15.7674 39.725 -167.98 -12.8324 -175.887
lowerback -12.5079 7.1462 6.93234
upperback -6.26432 8.14847 -2.43215
thorax 1.67183 3.66404 -5.21653
lowerneck -10.4741 4.87217 -24.0706
upperneck 16.2884 3.14433 39.0905
head 4.98069 2.08155 20.0926
rclavicle -1.08835e-013 -4.92986e-014
rhumerus -35.55 -2.69509 -92.7942
rradius 24.091
rwrist 27.0562
rhand -10.035 -1.9997
rfingers 7.12502
rthumb 15.9499 -31.363
lclavicle -1.08835e-013 -4.92986e-014
lhumerus -37.3907 -15.5548 91.8693
lradius 29.5624
lwrist 41.0685
lhand 8.87703 -4.75311
lfingers 7.12502
lthumb 34.0605 22.0172
rfemur -21.8664 -14.6282 28.2552
rtibia 25.9106
rfoot -19.4165 18.8155
rtoes -3.99781
lfemur -24.2213 8.15714 -17.5812
ltibia 30.016
lfoot -19.8173 -3.86095
ltoes -20.0704
4
root 6.27327 15.7669 39.7285 -168.006 -12.8825 -175.862
lowerback -12.4945 7.20429 6.96562
upperback -6.27324 8.22438 -2.45985
thorax 1.67432 3.70132 -5.25179
lowerneck -10.4685 4.88984 -24.0396
upperneck 16.1991 3.18187 39.1375
head 4.93985 2.10441 20.1
rclavicle 2.98177e-015 -7.15625e-015
rhumerus -35.5875 -2.8129 -92.7625
rradius 24.0763
rwrist 27.0739
rhand -10.1626 -1.98732
rfingers 7.12502
rthumb 15.827 -31.3604
lclavicle 2.98177e-015 -7.15625e-015
lhumerus -37.7773 -16.4809 92.4928
lradius 29.7922
lwrist 40.6411
lhand 6.77292 -5.51238
lfingers 7.12502
lthumb 32.0595 21.6816
rfemur -21.8446 -14.6004 28.2802
rtibia 25.9008
rfoot -19.4206 18.7291
rtoes -4.09021
lfemur -24.2317 8.14662 -17.5487
ltibia 30.0305
lfoot -19.8178 -3.89465
ltoes -19.9861
5
root 6.27442 15.7667 39.732 -168.023 -12.9311 -175.855
lowerback -12.4874 7.24153 6.96539
upperback -6.27541 8.27549 -2.46997
thorax 1.67698 3.72716 -5.25377
lowerneck -10.5187 4.90781 -24.0296
upperneck 16.1414 3.23403 39.1694
head 4.91372 2.13951 20.1106
rclavicle -1.2424e-014 -1.43125e-014
rhumerus -35.6212 -2.85953 -92.7347
rradius 24.0601
rwrist 27.0901
rhand -10.2808 -1.94644
rfingers 7.12502
rthumb 15.7132 -31.3285
lclavicle -1.2424e-014 -1.43125e-014
lhumerus -38.1168 -17.2973 93.0983
lradius 29.9582
lwrist 40.1606
lhand 4.70917 -6.24819
lfingers 7.12502
lthumb 30.0925 21.3223
rfemur -21.8304 -14.581 28.288
rtibia 25.8871
rfoot -19.4144 18.6526
rtoes -4.13115
lfemur -24.2467 8.12646 -17.5353
ltibia 30.0444
lfoot -19.8158 -3.93469
ltoes -19.9074
6
root 6.27549 15.7666 39.7354 -168.041 -12.9821 -175.849
lowerback -12.4777 7.28361 6.96955
upperback -6.28019 8.33292 -2.48805
thorax 1.67814 3.75588 -5.26575
lowerneck -10.5505 4.91803 -24.0164
upperneck 16.0674 3.27416 39.1981
head 4.88433 2.16661 20.1162
rclavicle -4.00054e-014 -4.77083e-015
rhumerus -35.6627 -2.93555 -92.7068
rradius 24.0494
rwrist 27.1179
rhand -10.4014 -1.90111
rfingers 7.12502
rthumb 15.5971 -31.2923
lclavicle -4.00054e-014 -4.77083e-015
lhumerus -38.4726 -18.1174 93.7021
lradius 30.132
lwrist 39.6718
lhand 2.65938 -6.91868
lfingers 7.12502
lthumb 28.135 20.9905
rfemur -21.8172 -14.5647 28.2932
rtibia 25.8783
rfoot -19.4099 18.5769
rtoes -4.16222
lfemur -24.2598 8.10697 -17.5242
ltibia 30.058
lfoot -19.8139 -3.97476
ltoes -19.8234
7
root 6.27647 15.7663 39.7387 -168.059 -13.0364 -175.846
lowerback -12.4674 7.32281 6.97291
upperback -6.28464 8.38671 -2.50644
thorax 1.67878 3.78282 -5.27831
lowerneck -10.5765 4.92419 -24.0035
upperneck 15.9908 3.30879 39.2206
head 4.85549 2.19018 20.1176
rclavicle 4.64659e-014 -4.77083e-015
rhumerus -35.7088 -3.01792 -92.6792
rradius 24.0427
rwrist 27.1615
rhand -10.5541 -1.83802
rfingers 7.12502
rthumb 15.45 -31.2406
lclavicle 4.64659e-014 -4.77083e-015
lhumerus -38.8401 -18.9171 94.3027
lradius 30.3093
lwrist 39.1712
lhand 0.624346 -7.52781
lfingers 7.12502
lthumb 26.1883 20.6857
rfemur -21.8047 -14.5497 28.2947
rtibia 25.8749
rfoot -19.4089 18.4963
rtoes -4.19476
lfemur -24.2688 8.09117 -17.5171
ltibia 30.0657
lfoot -19.8138 -4.02026
ltoes -19.7586
8
root 6.27735 15.766 39.742 -168.078 -13.0908 -175.845
lowerback -12.4549 7.36126 6.97531
upperback -6.29057 8.43973 -2.52655
thorax 1.67674 3.8092 -5.29261
lowerneck -10.5964 4.9269 -23.989
upperneck 15.9124 3.33772 39.2381
head 4.82738 2.21016 20.1153
rclavicle 6.26172e-014 2.54444e-014
rhumerus -35.7622 -3.10699 -92.653
rradius 24.0424
rwrist 27.2115
rhand -10.7174 -1.76493
rfingers 7.12502
rthumb 15.2927 -31.1796
lclavicle 6.26172e-014 2.54444e-014
lhumerus -39.2169 -19.6982 94.9015
lradius 30.4821
lwrist 38.6517
lhand -1.39794 -8.08669
lfingers 7.12502
lthumb 24.2507 20.3997
rfemur -21.7921 -14.5347 28.2922
rtibia 25.8748
rfoot -19.4095 18.4149
rtoes -4.21808
lfemur -24.2755 8.07523 -17.5135
ltibia 30.0713
lfoot -19.8159 -4.06445
ltoes -19.7188
9
root 6.27819 15.7657 39.7453 -168.097 -13.1472 -175.846
lowerback -12.4356 7.40278 6.98222
upperback -6.302 8.49676 -2.55372
thorax 1.66753 3.83694 -5.31712
lowerneck -10.5998 4.9272 -23.9657
upperneck 15.8271 3.35863 39.2542
head 4.79746 2.22453 20.1084
rclavicle -7.82218e-014 -5.24792e-014
rhumerus -35.8262 -3.2142 -92.6296
rradius 24.0482
rwrist 27.2652
rhand -10.8943 -1.68246
rfingers 7.12502
rthumb 15.1223 -31.11
lclavicle -7.82218e-014 -5.24792e-014
lhumerus -39.6118 -20.475 95.4988
lradius 30.6536
lwrist 38.1186
lhand -3.4021 -8.58576
lfingers 7.12502
lthumb 22.328 20.1441
rfemur -21.7798 -14.5244 28.2883
rtibia 25.8775
rfoot -19.4122 18.3356
rtoes -4.23503
lfemur -24.281 8.06094 -17.5118
ltibia 30.0755
lfoot -19.8209 -4.10973
ltoes -19.7042
10
root 6.27909 15.7653 39.7486 -168.117 -13.2055 -175.848
lowerback -12.4139 7.44504 6.98995
upperback -6.3175 8.55462 -2.5845
thorax 1.65359 3.86462 -5.34622
lowerneck -10.5879 4.92769 -23.9353
upperneck 15.7376 3.37593 39.2682
head 4.76487 2.2357 20.0969
rclavicle -1.36863e-013 -3.26007e-014
rhumerus -35.8959 -3.32744 -92.6096
rradius 24.0579
rwrist 27.3155
rhand -11.0375 -1.6091
rfingers 7.12502
rthumb 14.9844 -31.047
lclavicle -1.36863e-013 -3.26007e-014
lhumerus -40.0232 -21.2411 96.0958
lradius 30.8255
lwrist 37.5784
lhand -5.39257 -9.01187
lfingers 7.12502
lthumb 20.4162 19.9348
rfemur -21.7686 -14.5201 28.2847
rtibia 25.8819
rfoot -19.4172 18.2602
rtoes -4.24845
lfemur -24.2865 8.04402 -17.5107
ltibia 30.0791
lfoot -19.8264 -4.1502
ltoes -19.7103
11
root 6.28002 15.7648 39.7521 -168.135 -13.2638 -175.85
lowerback -12.3883 7.48898 6.99868
upperback -6.33778 8.61463 -2.61922
thorax 1.63361 3.89281 -5.38037
lowerneck -10.5589 4.9281 -23.8999
upperneck 15.6404 3.39035 39.281
head 4.72791 2.24384 20.0812
rclavicle -7.38485e-014 3.97569e-015
rhumerus -35.9677 -3.44055 -92.5945
rradius 24.0681
rwrist 27.3538
rhand -11.1267 -1.55379
rfingers 7.12502
rthumb 14.8984 -30.998
lclavicle -7.38485e-014 3.97569e-015
lhumerus -40.4727 -22.0312 96.7245
lradius 31.0039
lwrist 36.9925
lhand -7.47587 -9.38161
lfingers 7.12502
lthumb 18.4131 19.7669
rfemur -21.7587 -14.5096 28.2797
rtibia 25.8867
rfoot -19.4227 18.1767
rtoes -4.26832
lfemur -24.2939 8.02524 -17.5107
ltibia 30.0828
lfoot -19.8332 -4.18828
ltoes -19.7184
12
root 6.28112 15.7644 39.7557 -168.152 -13.3252 -175.852
lowerback -12.3622 7.53228 7.0071
upperback -6.35919 8.67378 -2.65458
thorax 1.61223 3.92044 -5.41533
lowerneck -10.5227 4.92735 -23.8664
upperneck 15.5393 3.40289 39.2941
head 4.68909 2.25012 20.0656
rclavicle 1.17283e-014 5.56597e-015
rhumerus -36.036 -3.54209 -92.586
rradius 24.076
rwrist 27.3737
rhand -11.1583 -1.52381
rfingers 7.12502
rthumb 14.868 -30.9703
lclavicle 1.17283e-014 5.56597e-015
lhumerus -40.9185 -22.7789 97.3311
lradius 31.1745
lwrist 36.4189
lhand -9.46536 -9.6563
lfingers 7.12502
lthumb 16.4984 19.6622
rfemur -21.7497 -14.4896 28.2752
rtibia 25.8914
rfoot -19.4267 18.0796
rtoes -4.29395
lfemur -24.3033 8.00088 -17.5085
ltibia 30.0866
lfoot -19.8359 -4.22479
ltoes -19.7005
13
root 6.28228 15.7639 39.7595 -168.169 -13.3931 -175.852
lowerback -12.3404 7.56762 7.01281
upperback -6.37531 8.72249 -2.68283
thorax 1.59579 3.94346 -5.44248
lowerneck -10.4936 4.92546 -23.8399
upperneck 15.4403 3.41806 39.3017
head 4.6513 2.25815 20.0491
rclavicle 4.23908e-014 1.66979e-014
rhumerus -36.0908 -3.61456 -92.5825
rradius 24.0787
rwrist 27.3878
rhand -11.1192 -1.52773
rfingers 7.12502
rthumb 14.9057 -30.9715
lclavicle 4.23908e-014 1.66979e-014
lhumerus -41.3227 -23.4326 97.8806
lradius 31.3233
lwrist 35.8821
lhand -11.2631 -9.83719
lfingers 7.12502
lthumb 14.767 19.6168
rfemur -21.7404 -14.4636 28.2717
rtibia 25.8963
rfoot -19.4309 17.9688
rtoes -4.33335
lfemur -24.3141 7.9766 -17.5042
ltibia 30.0905
lfoot -19.8399 -4.27055
ltoes -19.6683
